# Blender v2.79 (sub 0) OBJ File: ''
# www.blender.org
mtllib twoblock.mtl
o Cube
v 1.000000 -1.000000 -3.489028
v 1.000000 -1.000000 -1.489028
v -1.000000 -1.000000 -1.489028
v -1.000000 -1.000000 -3.489028
v 1.000000 1.000000 -3.489027
v 0.999999 1.000000 -1.489027
v -1.000000 1.000000 -1.489028
v -1.000000 1.000000 -3.489028
v 0.589515 -1.106802 -0.147377
v 0.589515 -1.106802 1.852623
v -1.410485 -1.106802 1.852623
v -1.410484 -1.106802 -0.147377
v 0.589516 0.893198 -0.147376
v 0.589515 0.893198 1.852624
v -1.410485 0.893198 1.852623
v -1.410485 0.893198 -0.147377
vn 0.0000 -1.0000 0.0000
vn 0.0000 1.0000 0.0000
vn 1.0000 0.0000 0.0000
vn -0.0000 -0.0000 1.0000
vn -1.0000 -0.0000 -0.0000
vn 0.0000 0.0000 -1.0000
usemtl Material
s off
f 1//1 2//1 3//1 4//1
f 5//2 8//2 7//2 6//2
f 1//3 5//3 6//3 2//3
f 2//4 6//4 7//4 3//4
f 3//5 7//5 8//5 4//5
f 5//6 1//6 4//6 8//6
usemtl Material.001
f 9//1 10//1 11//1 12//1
f 13//2 16//2 15//2 14//2
f 9//3 13//3 14//3 10//3
f 10//4 14//4 15//4 11//4
f 11//5 15//5 16//5 12//5
f 13//6 9//6 12//6 16//6
